<svg width="21" height="22" viewBox="0 0 21 22" fill="none" xmlns="http://www.w3.org/2000/svg">
<path d="M18.3709 6.61694C18.3709 4.68407 16.8039 3.11694 14.8709 3.11694H11.3709C9.43796 3.11694 7.87092 4.68407 7.87092 6.61694C7.87092 7.09994 8.26266 7.49194 8.74592 7.49194C9.22919 7.49194 9.62092 7.09994 9.62092 6.61694C9.62092 5.65007 10.4044 4.86694 11.3709 4.86694H14.8709C15.8374 4.86694 16.6209 5.65007 16.6209 6.61694V15.3669C16.6209 16.3338 15.8374 17.1169 14.8709 17.1169H11.3709C10.4044 17.1169 9.62092 16.3338 9.62092 15.3669C9.62092 14.8839 9.22919 14.4919 8.74592 14.4919C8.26266 14.4919 7.87092 14.8839 7.87092 15.3669C7.87092 17.2998 9.43796 18.8669 11.3709 18.8669H14.8709C16.8039 18.8669 18.3709 17.2998 18.3709 15.3669V6.61694ZM12.2459 10.9919C12.2459 10.5089 11.8542 10.1169 11.3709 10.1169H4.75374L6.47644 8.36694L5.24592 7.13668L1.99206 10.3628C1.65028 10.7049 1.65029 11.2789 1.99197 11.6211L5.24592 14.8472L6.47635 13.6169L4.75374 11.8669H11.3709C11.8542 11.8669 12.2459 11.4749 12.2459 10.9919Z" fill="#A7A7B0"/>
</svg>
