<svg width="100" height="78" viewBox="0 0 100 78" fill="none" xmlns="http://www.w3.org/2000/svg">
<path fill-rule="evenodd" clip-rule="evenodd" d="M89.5858 20.0469C91.6747 20.0469 93.3681 21.7441 93.3681 23.8376C93.3681 25.9312 91.6747 27.6284 89.5858 27.6284H67.9726C70.0615 27.6284 71.7549 29.3256 71.7549 31.4192C71.7549 33.5128 70.0615 35.21 67.9726 35.21H79.8599C81.9488 35.21 83.6421 36.9071 83.6421 39.0007C83.6421 41.0943 81.9488 42.7915 79.8599 42.7915H74.3626C71.7288 42.7915 69.5936 44.4887 69.5936 46.5823C69.5936 47.978 70.6743 49.2416 72.8356 50.373C74.9245 50.373 76.6179 52.0702 76.6179 54.1638C76.6179 56.2574 74.9245 57.9546 72.8356 57.9546H27.9884C25.8995 57.9546 24.2061 56.2574 24.2061 54.1638C24.2061 52.0702 25.8995 50.373 27.9884 50.373H6.9156C4.82669 50.373 3.1333 48.6758 3.1333 46.5823C3.1333 44.4887 4.82669 42.7915 6.9156 42.7915H28.5287C30.6176 42.7915 32.311 41.0943 32.311 39.0007C32.311 36.9071 30.6176 35.21 28.5287 35.21H15.0205C12.9316 35.21 11.2382 33.5128 11.2382 31.4192C11.2382 29.3256 12.9316 27.6284 15.0205 27.6284H36.6336C34.5447 27.6284 32.8513 25.9312 32.8513 23.8376C32.8513 21.7441 34.5447 20.0469 36.6336 20.0469H89.5858ZM89.5858 35.21C91.6747 35.21 93.3681 36.9071 93.3681 39.0007C93.3681 41.0943 91.6747 42.7915 89.5858 42.7915C87.4969 42.7915 85.8035 41.0943 85.8035 39.0007C85.8035 36.9071 87.4969 35.21 89.5858 35.21Z" fill="#EFF3F7"/>
<path fill-rule="evenodd" clip-rule="evenodd" d="M60.7807 19.5037L65.7984 56.2356L66.2491 59.9207C66.3943 61.1079 65.5513 62.1887 64.3662 62.3348L32.7157 66.2363C31.5306 66.3824 30.4522 65.5384 30.307 64.3512L25.4447 24.5955C25.3721 24.0019 25.7936 23.4615 26.3862 23.3884C26.3899 23.388 26.3937 23.3875 26.3974 23.3871L29.0233 23.0913M31.1448 22.8446L33.6235 22.5655L31.1448 22.8446Z" fill="white"/>
<path d="M61.177 19.4494C61.1471 19.2305 60.9454 19.0774 60.7266 19.1074C60.5077 19.1374 60.3545 19.3392 60.3844 19.5581L61.177 19.4494ZM65.7984 56.2356L66.1954 56.1868L66.1947 56.1812L65.7984 56.2356ZM66.2491 59.9207L66.6461 59.8719L66.2491 59.9207ZM64.3662 62.3348L64.4149 62.7318L64.3662 62.3348ZM32.7157 66.2363L32.7644 66.6333L32.7157 66.2363ZM30.307 64.3512L30.704 64.3025L30.307 64.3512ZM25.4447 24.5955L25.0477 24.6442L25.4447 24.5955ZM26.3974 23.3871L26.442 23.7846L26.3974 23.3871ZM29.0678 23.4888C29.2873 23.4641 29.4453 23.2661 29.4207 23.0466C29.3961 22.827 29.1982 22.6691 28.9787 22.6938L29.0678 23.4888ZM31.1003 22.4471C30.8808 22.4718 30.7228 22.6698 30.7474 22.8894C30.772 23.1089 30.9699 23.2668 31.1894 23.2421L31.1003 22.4471ZM33.668 22.963C33.8876 22.9383 34.0456 22.7403 34.021 22.5208C33.9964 22.3012 33.7985 22.1433 33.5789 22.168L33.668 22.963ZM60.3844 19.5581L65.4021 56.2899L66.1947 56.1812L61.177 19.4494L60.3844 19.5581ZM65.4014 56.2844L65.8521 59.9695L66.6461 59.8719L66.1954 56.1868L65.4014 56.2844ZM65.8521 59.9695C65.9705 60.9381 65.2827 61.8188 64.3175 61.9378L64.4149 62.7318C65.8198 62.5586 66.818 61.2777 66.6461 59.8719L65.8521 59.9695ZM64.3175 61.9378L32.667 65.8393L32.7644 66.6333L64.4149 62.7318L64.3175 61.9378ZM32.667 65.8393C31.7018 65.9582 30.8224 65.2709 30.704 64.3025L29.91 64.4C30.0819 65.8059 31.3594 66.8065 32.7644 66.6333L32.667 65.8393ZM30.704 64.3025L25.8417 24.5467L25.0477 24.6442L29.91 64.4L30.704 64.3025ZM25.8417 24.5467C25.7959 24.1717 26.0622 23.8314 26.4349 23.7854L26.3375 22.9914C25.5251 23.0915 24.9484 23.8321 25.0477 24.6442L25.8417 24.5467ZM26.4349 23.7854C26.4373 23.7852 26.4396 23.7849 26.442 23.7846L26.3529 22.9896C26.3477 22.9902 26.3426 22.9908 26.3375 22.9914L26.4349 23.7854ZM26.442 23.7846L29.0678 23.4888L28.9787 22.6938L26.3529 22.9896L26.442 23.7846ZM31.1894 23.2421L33.668 22.963L33.5789 22.168L31.1003 22.4471L31.1894 23.2421Z" fill="#2A3845"/>
<path fill-rule="evenodd" clip-rule="evenodd" d="M59.403 21.8171L63.9524 55.1129L64.3616 58.4532C64.4934 59.5293 63.7402 60.5075 62.6792 60.6381L34.3434 64.1251C33.2824 64.2556 32.3154 63.4891 32.1836 62.413L27.726 26.0278C27.683 25.677 27.9326 25.3576 28.2834 25.3144L32.2262 24.8292" fill="#D6DCE1"/>
<path d="M36.6555 12.3238H62.5164C62.7501 12.3238 62.9741 12.4167 63.1392 12.5821L70.9202 20.3757C71.0849 20.5407 71.1775 20.7643 71.1775 20.9975V56.1331C71.1775 56.6191 70.7835 57.0131 70.2975 57.0131H36.6555C36.1695 57.0131 35.7755 56.6191 35.7755 56.1331V13.2038C35.7755 12.7178 36.1695 12.3238 36.6555 12.3238Z" fill="white" stroke="#2A3845" stroke-width="0.8"/>
<path d="M62.3918 13.2246V19.5049C62.3918 20.4022 63.1176 21.1295 64.0128 21.1295H68.2996" stroke="#2A3845" stroke-width="0.8" stroke-linecap="round" stroke-linejoin="round"/>
<path d="M41.4963 48.7474H55.5449M41.4963 21.1289H55.5449H41.4963ZM41.4963 27.6274H64.7304H41.4963ZM41.4963 34.6674H64.7304H41.4963ZM41.4963 41.7074H64.7304H41.4963Z" stroke="#D6DCE1" stroke-width="0.8" stroke-linecap="round" stroke-linejoin="round"/>
</svg>
