<svg width="33" height="32" viewBox="0 0 33 32" fill="none" xmlns="http://www.w3.org/2000/svg">
<path d="M16.5262 0C7.70385 0 0.526367 7.17786 0.526367 16.0008C0.527242 24.8228 7.70472 32 16.5262 32C25.3483 32 32.5256 24.8227 32.5256 16.0006C32.5256 7.17786 25.3483 0 16.5262 0ZM16.5262 2.91503C19.6097 2.91503 22.4469 3.98795 24.6858 5.77924L6.30531 24.1595C4.51442 21.9208 3.44169 19.0838 3.44139 16.0007C3.44139 8.78521 9.31119 2.91503 16.5262 2.91503ZM16.5262 29.085C13.4428 29.085 10.6054 28.0121 8.36633 26.2208L26.747 7.84055C28.5379 10.0796 29.6107 12.917 29.6107 16.0006C29.6106 23.2154 23.741 29.085 16.5262 29.085Z" fill="#E63B3B"/>
</svg>
