<svg width="20" height="20" viewBox="0 0 20 20" fill="none" xmlns="http://www.w3.org/2000/svg">
<g id="person-circle">
<path id="Vector" d="M9.99917 2C5.60199 2 2.05271 5.5644 2.03758 9.96159C2.02246 14.3524 5.60597 17.9391 9.99917 17.9479C14.3924 17.9566 17.9687 14.3214 17.9608 9.96159C17.9528 5.5644 14.3964 2 9.99917 2ZM9.99917 3.59232C13.5166 3.59232 16.3684 6.44416 16.3684 9.96159C16.3684 11.7529 15.6224 13.3675 14.4322 14.5252C13.8454 13.2569 12.5867 12.3501 11.1433 12.3501C10.8574 12.3501 9.14092 12.3501 8.85431 12.3501C7.41326 12.3501 6.15692 13.2457 5.57015 14.5148C4.38069 13.3572 3.6299 11.7529 3.6299 9.96159C3.6299 6.44416 6.48174 3.59232 9.99917 3.59232ZM9.99917 5.18463C8.24046 5.18463 6.81454 6.61056 6.81454 8.36927C6.81454 10.128 8.24046 11.5539 9.99917 11.5539C11.7579 11.5539 13.1838 10.128 13.1838 8.36927C13.1838 6.61056 11.7579 5.18463 9.99917 5.18463ZM9.99917 6.77695C10.8789 6.77695 11.5915 7.48951 11.5915 8.36927C11.5915 9.24903 10.8789 9.96159 9.99917 9.96159C9.11942 9.96159 8.40686 9.24903 8.40686 8.36927C8.40686 7.48951 9.11942 6.77695 9.99917 6.77695ZM8.85431 13.9424C9.14092 13.9424 10.8574 13.9424 11.1433 13.9424C12.0318 13.9424 12.8359 14.5905 13.1177 15.5036C11.9808 16.1748 10.7109 16.3309 9.99917 16.3309C9.2683 16.3309 8.05575 16.1668 6.89017 15.5243C7.16963 14.6032 7.97375 13.9424 8.85431 13.9424Z" fill="#743CFF"/>
</g>
</svg>
