<svg width="20" height="20" viewBox="0 0 20 20" fill="none" xmlns="http://www.w3.org/2000/svg">
<path d="M9.68565 1.69519C8.9534 2.00769 4.55848 3.88353 3.82632 4.19603C3.51923 4.32686 3.33148 4.61687 3.33148 4.95104C3.33182 8.60104 3.47723 10.2344 4.13882 12.1152C5.00515 14.5777 6.70482 16.5402 9.58148 18.1844C9.83765 18.3311 10.1586 18.3311 10.4148 18.1844C13.3176 16.5252 15.0247 14.5694 15.8836 12.1152C16.5369 10.2477 16.6648 8.69438 16.6648 4.95104C16.6648 4.61854 16.4758 4.3277 16.17 4.19603L10.3627 1.69519C10.1532 1.60519 9.8954 1.60519 9.68565 1.69519ZM9.99815 3.33602L14.9952 5.50521C15.0677 11.4844 13.8954 14.1052 10.0059 16.4894C9.99815 14.9611 9.99815 4.12769 9.99815 3.33602Z" fill="#A7A7B0"/>
</svg>
