<svg width="24" height="24" viewBox="0 0 24 24" fill="none" xmlns="http://www.w3.org/2000/svg">
<g id="Frame">
<path id="Vector" d="M13.6005 5.59063C13.6005 4.71181 12.8883 4 12.0098 4C11.1313 4 10.4192 4.71181 10.4192 5.59063C10.4192 6.46945 11.1313 7.18126 12.0098 7.18126C12.8883 7.18126 13.6005 6.46945 13.6005 5.59063ZM13.6005 11.9532C13.6005 11.0743 12.8883 10.3625 12.0098 10.3625C11.1313 10.3625 10.4192 11.0743 10.4192 11.9532C10.4192 12.832 11.1313 13.5438 12.0098 13.5438C12.8883 13.5438 13.6005 12.832 13.6005 11.9532ZM13.6005 18.3157C13.6005 17.4368 12.8883 16.725 12.0098 16.725C11.1313 16.725 10.4192 17.4368 10.4192 18.3157C10.4192 19.1945 11.1313 19.9063 12.0098 19.9063C12.8883 19.9063 13.6005 19.1945 13.6005 18.3157Z" fill="#070625"/>
</g>
</svg>
