<svg width="20" height="13" viewBox="0 0 20 13" fill="none" xmlns="http://www.w3.org/2000/svg">
<path d="M0.999023 0.101562C0.447023 0.101562 -0.000976562 0.549563 -0.000976562 1.10156C-0.000976562 1.65356 0.447023 2.10156 0.999023 2.10156H18.999C19.551 2.10156 19.999 1.65356 19.999 1.10156C19.999 0.549563 19.551 0.101562 18.999 0.101562H0.999023ZM0.999023 5.10156C0.447023 5.10156 -0.000976562 5.54956 -0.000976562 6.10156C-0.000976562 6.65356 0.447023 7.10156 0.999023 7.10156H18.999C19.551 7.10156 19.999 6.65356 19.999 6.10156C19.999 5.54956 19.551 5.10156 18.999 5.10156H0.999023ZM0.999023 10.1016C0.447023 10.1016 -0.000976562 10.5496 -0.000976562 11.1016C-0.000976562 11.6536 0.447023 12.1016 0.999023 12.1016H18.999C19.551 12.1016 19.999 11.6536 19.999 11.1016C19.999 10.5496 19.551 10.1016 18.999 10.1016H0.999023Z" fill="#2A3845"/>
</svg>
