<svg width="1836" height="806" viewBox="0 0 1836 806" fill="none" xmlns="http://www.w3.org/2000/svg">
<path d="M71.0562 458.449L399.269 130.236L731.907 458.449" stroke="#FD4237" stroke-width="51.573"/>
<path d="M641.925 437.54C641.925 501.31 616.593 562.467 571.501 607.559C526.409 652.651 465.251 677.984 401.481 677.984C337.712 677.984 276.554 652.651 231.462 607.559C186.37 562.467 161.038 501.31 161.038 437.54H216.176C216.176 486.686 235.699 533.82 270.451 568.571C305.202 603.323 352.335 622.846 401.481 622.846C450.628 622.846 497.761 603.323 532.512 568.571C567.264 533.82 586.787 486.686 586.787 437.54H641.925Z" fill="#FD4237"/>
<path d="M489.885 396.523C505.927 405.752 505.927 428.9 489.885 438.129L371.766 506.083C355.766 515.288 335.798 503.739 335.798 485.28L335.798 349.372C335.798 330.913 355.766 319.364 371.766 328.569L489.885 396.523Z" fill="#16191C"/>
<path d="M913.928 384.816C901.262 384.816 889.546 382.52 878.78 377.929C868.172 373.338 858.831 366.925 850.756 358.692C842.84 350.46 836.665 340.802 832.232 329.719C827.799 318.636 825.582 306.524 825.582 293.383C825.582 280.242 827.72 268.13 831.994 257.047C836.428 245.806 842.602 236.148 850.519 228.074C858.593 219.841 868.014 213.508 878.78 209.075C889.546 204.483 901.262 202.188 913.928 202.188C926.594 202.188 937.914 204.325 947.889 208.6C958.022 212.875 966.571 218.574 973.538 225.699C980.504 232.665 985.491 240.344 988.499 248.735L959.526 262.272C956.201 253.406 950.58 246.123 942.664 240.423C934.748 234.565 925.169 231.636 913.928 231.636C902.845 231.636 893.029 234.249 884.479 239.473C876.088 244.698 869.518 251.902 864.768 261.085C860.176 270.268 857.881 281.034 857.881 293.383C857.881 305.733 860.176 316.578 864.768 325.919C869.518 335.102 876.088 342.306 884.479 347.531C893.029 352.755 902.845 355.368 913.928 355.368C925.169 355.368 934.748 352.518 942.664 346.818C950.58 340.96 956.201 333.598 959.526 324.732L988.499 338.268C985.491 346.66 980.504 354.418 973.538 361.542C966.571 368.509 958.022 374.129 947.889 378.404C937.914 382.679 926.594 384.816 913.928 384.816ZM1072.96 384.816C1060.3 384.816 1048.74 381.887 1038.29 376.029C1028 370.171 1019.76 362.176 1013.59 352.043C1007.57 341.91 1004.56 330.352 1004.56 317.369C1004.56 304.387 1007.57 292.829 1013.59 282.696C1019.76 272.563 1028 264.568 1038.29 258.71C1048.58 252.852 1060.14 249.923 1072.96 249.923C1085.63 249.923 1097.11 252.852 1107.4 258.71C1117.69 264.568 1125.84 272.563 1131.86 282.696C1138.03 292.671 1141.12 304.228 1141.12 317.369C1141.12 330.352 1138.03 341.91 1131.86 352.043C1125.68 362.176 1117.45 370.171 1107.16 376.029C1096.87 381.887 1085.47 384.816 1072.96 384.816ZM1072.96 356.318C1079.93 356.318 1086.02 354.655 1091.25 351.33C1096.63 348.005 1100.83 343.414 1103.84 337.556C1107 331.54 1108.58 324.811 1108.58 317.369C1108.58 309.77 1107 303.12 1103.84 297.42C1100.83 291.562 1096.63 286.971 1091.25 283.646C1086.02 280.163 1079.93 278.421 1072.96 278.421C1065.84 278.421 1059.58 280.163 1054.2 283.646C1048.82 286.971 1044.54 291.562 1041.38 297.42C1038.37 303.12 1036.86 309.77 1036.86 317.369C1036.86 324.811 1038.37 331.54 1041.38 337.556C1044.54 343.414 1048.82 348.005 1054.2 351.33C1059.58 354.655 1065.84 356.318 1072.96 356.318ZM1164.71 381.966V252.773H1193.92V278.184L1191.55 273.672C1194.56 265.914 1199.47 260.056 1206.27 256.098C1213.24 251.981 1221.32 249.923 1230.5 249.923C1240 249.923 1248.39 251.981 1255.67 256.098C1263.11 260.214 1268.89 265.993 1273.01 273.434C1277.12 280.717 1279.18 289.188 1279.18 298.845V381.966H1248.07V306.208C1248.07 300.508 1246.96 295.6 1244.75 291.483C1242.53 287.367 1239.44 284.2 1235.49 281.984C1231.69 279.609 1227.17 278.421 1221.95 278.421C1216.88 278.421 1212.37 279.609 1208.41 281.984C1204.45 284.2 1201.37 287.367 1199.15 291.483C1196.93 295.6 1195.82 300.508 1195.82 306.208V381.966H1164.71ZM1364.39 383.391C1349.82 383.391 1338.5 379.433 1330.43 371.517C1322.51 363.442 1318.55 352.122 1318.55 337.556V280.559H1296.23V252.773H1298.6C1304.94 252.773 1309.84 251.11 1313.33 247.785C1316.81 244.461 1318.55 239.632 1318.55 233.299V223.324H1349.66V252.773H1379.35V280.559H1349.66V335.894C1349.66 340.168 1350.38 343.81 1351.8 346.818C1353.38 349.826 1355.76 352.122 1358.93 353.705C1362.25 355.288 1366.45 356.08 1371.51 356.08C1372.62 356.08 1373.89 356.001 1375.31 355.843C1376.9 355.684 1378.4 355.526 1379.82 355.368V381.966C1377.61 382.283 1375.07 382.6 1372.22 382.916C1369.37 383.233 1366.76 383.391 1364.39 383.391ZM1463.71 384.816C1450.41 384.816 1438.77 381.808 1428.8 375.792C1418.82 369.775 1411.06 361.621 1405.52 351.33C1399.98 341.039 1397.21 329.64 1397.21 317.132C1397.21 304.149 1399.98 292.671 1405.52 282.696C1411.22 272.563 1418.9 264.568 1428.56 258.71C1438.37 252.852 1449.3 249.923 1461.33 249.923C1471.46 249.923 1480.33 251.585 1487.93 254.91C1495.69 258.235 1502.26 262.826 1507.64 268.684C1513.02 274.542 1517.14 281.271 1519.99 288.871C1522.84 296.312 1524.27 304.387 1524.27 313.095C1524.27 315.311 1524.11 317.607 1523.79 319.982C1523.63 322.357 1523.24 324.415 1522.6 326.157H1422.86V302.408H1505.03L1490.3 313.57C1491.73 306.287 1491.33 299.795 1489.12 294.096C1487.06 288.396 1483.58 283.884 1478.67 280.559C1473.92 277.234 1468.14 275.572 1461.33 275.572C1454.84 275.572 1449.06 277.234 1443.99 280.559C1438.93 283.725 1435.05 288.475 1432.36 294.808C1429.82 300.983 1428.87 308.503 1429.51 317.369C1428.87 325.286 1429.9 332.331 1432.59 338.506C1435.44 344.522 1439.56 349.193 1444.94 352.518C1450.49 355.843 1456.82 357.505 1463.94 357.505C1471.07 357.505 1477.08 356.001 1481.99 352.993C1487.06 349.985 1491.02 345.947 1493.87 340.881L1519.04 353.23C1516.51 359.405 1512.55 364.867 1507.17 369.617C1501.78 374.367 1495.37 378.087 1487.93 380.779C1480.65 383.47 1472.57 384.816 1463.71 384.816ZM1547.85 381.966V252.773H1577.06V278.184L1574.69 273.672C1577.69 265.914 1582.6 260.056 1589.41 256.098C1596.38 251.981 1604.45 249.923 1613.63 249.923C1623.13 249.923 1631.52 251.981 1638.81 256.098C1646.25 260.214 1652.03 265.993 1656.14 273.434C1660.26 280.717 1662.32 289.188 1662.32 298.845V381.966H1631.21V306.208C1631.21 300.508 1630.1 295.6 1627.88 291.483C1625.67 287.367 1622.58 284.2 1618.62 281.984C1614.82 279.609 1610.31 278.421 1605.08 278.421C1600.02 278.421 1595.51 279.609 1591.55 281.984C1587.59 284.2 1584.5 287.367 1582.28 291.483C1580.07 295.6 1578.96 300.508 1578.96 306.208V381.966H1547.85ZM1747.52 383.391C1732.96 383.391 1721.64 379.433 1713.56 371.517C1705.65 363.442 1701.69 352.122 1701.69 337.556V280.559H1679.36V252.773H1681.74C1688.07 252.773 1692.98 251.11 1696.46 247.785C1699.95 244.461 1701.69 239.632 1701.69 233.299V223.324H1732.8V252.773H1762.48V280.559H1732.8V335.894C1732.8 340.168 1733.51 343.81 1734.94 346.818C1736.52 349.826 1738.89 352.122 1742.06 353.705C1745.39 355.288 1749.58 356.08 1754.65 356.08C1755.76 356.08 1757.02 356.001 1758.45 355.843C1760.03 355.684 1761.53 355.526 1762.96 355.368V381.966C1760.74 382.283 1758.21 382.6 1755.36 382.916C1752.51 383.233 1749.9 383.391 1747.52 383.391Z" fill="#16191C"/>
<path d="M830.807 615.641V438.712H896.591C908.624 438.712 919.232 440.928 928.415 445.361C937.756 449.636 945.039 455.969 950.264 464.36C955.488 472.593 958.101 482.647 958.101 494.521C958.101 506.713 955.172 517.083 949.314 525.632C943.614 534.182 935.856 540.515 926.04 544.631L966.65 615.641H930.077L886.617 537.982L907.516 550.331H863.105V615.641H830.807ZM863.105 521.833H897.066C902.924 521.833 907.991 520.724 912.266 518.508C916.54 516.133 919.865 512.887 922.24 508.771C924.615 504.654 925.802 499.905 925.802 494.521C925.802 488.98 924.615 484.23 922.24 480.272C919.865 476.156 916.54 472.989 912.266 470.773C907.991 468.398 902.924 467.21 897.066 467.21H863.105V521.833ZM1041.19 618.49C1028.52 618.49 1016.96 615.561 1006.51 609.703C996.224 603.845 987.991 595.85 981.816 585.717C975.8 575.584 972.792 564.026 972.792 551.044C972.792 538.061 975.8 526.503 981.816 516.37C987.991 506.238 996.224 498.242 1006.51 492.384C1016.81 486.526 1028.36 483.597 1041.19 483.597C1053.85 483.597 1065.33 486.526 1075.62 492.384C1085.92 498.242 1094.07 506.238 1100.09 516.37C1106.26 526.345 1109.35 537.903 1109.35 551.044C1109.35 564.026 1106.26 575.584 1100.09 585.717C1093.91 595.85 1085.68 603.845 1075.39 609.703C1065.1 615.561 1053.7 618.49 1041.19 618.49ZM1041.19 589.992C1048.15 589.992 1054.25 588.329 1059.47 585.005C1064.86 581.68 1069.05 577.088 1072.06 571.23C1075.23 565.214 1076.81 558.485 1076.81 551.044C1076.81 543.444 1075.23 536.794 1072.06 531.095C1069.05 525.237 1064.86 520.645 1059.47 517.32C1054.25 513.837 1048.15 512.096 1041.19 512.096C1034.06 512.096 1027.81 513.837 1022.43 517.32C1017.04 520.645 1012.77 525.237 1009.6 531.095C1006.59 536.794 1005.09 543.444 1005.09 551.044C1005.09 558.485 1006.59 565.214 1009.6 571.23C1012.77 577.088 1017.04 581.68 1022.43 585.005C1027.81 588.329 1034.06 589.992 1041.19 589.992ZM1196.11 618.49C1183.45 618.49 1171.89 615.561 1161.44 609.703C1151.15 603.845 1142.91 595.85 1136.74 585.717C1130.72 575.584 1127.72 564.026 1127.72 551.044C1127.72 538.061 1130.72 526.503 1136.74 516.37C1142.91 506.238 1151.15 498.242 1161.44 492.384C1171.73 486.526 1183.29 483.597 1196.11 483.597C1208.78 483.597 1220.26 486.526 1230.55 492.384C1240.84 498.242 1248.99 506.238 1255.01 516.37C1261.18 526.345 1264.27 537.903 1264.27 551.044C1264.27 564.026 1261.18 575.584 1255.01 585.717C1248.83 595.85 1240.6 603.845 1230.31 609.703C1220.02 615.561 1208.62 618.49 1196.11 618.49ZM1196.11 589.992C1203.08 589.992 1209.17 588.329 1214.4 585.005C1219.78 581.68 1223.98 577.088 1226.99 571.23C1230.15 565.214 1231.74 558.485 1231.74 551.044C1231.74 543.444 1230.15 536.794 1226.99 531.095C1223.98 525.237 1219.78 520.645 1214.4 517.32C1209.17 513.837 1203.08 512.096 1196.11 512.096C1188.99 512.096 1182.73 513.837 1177.35 517.32C1171.97 520.645 1167.69 525.237 1164.53 531.095C1161.52 536.794 1160.01 543.444 1160.01 551.044C1160.01 558.485 1161.52 565.214 1164.53 571.23C1167.69 577.088 1171.97 581.68 1177.35 585.005C1182.73 588.329 1188.99 589.992 1196.11 589.992ZM1287.86 615.641V486.447H1317.08V516.37L1313.75 511.383C1316.13 502.042 1320.88 495.076 1328 490.484C1335.12 485.893 1343.52 483.597 1353.17 483.597C1363.78 483.597 1373.12 486.368 1381.2 491.909C1389.27 497.45 1394.5 504.733 1396.87 513.758L1388.08 514.47C1392.04 504.179 1397.98 496.501 1405.9 491.434C1413.81 486.209 1422.92 483.597 1433.21 483.597C1442.39 483.597 1450.54 485.655 1457.67 489.772C1464.95 493.888 1470.65 499.667 1474.77 507.108C1478.88 514.391 1480.94 522.862 1480.94 532.52V615.641H1449.83V539.882C1449.83 534.182 1448.8 529.274 1446.74 525.157C1444.69 521.041 1441.84 517.874 1438.19 515.658C1434.55 513.283 1430.12 512.096 1424.9 512.096C1419.99 512.096 1415.63 513.283 1411.83 515.658C1408.03 517.874 1405.1 521.041 1403.05 525.157C1400.99 529.274 1399.96 534.182 1399.96 539.882V615.641H1368.85V539.882C1368.85 534.182 1367.82 529.274 1365.76 525.157C1363.7 521.041 1360.77 517.874 1356.97 515.658C1353.33 513.283 1348.98 512.096 1343.91 512.096C1339 512.096 1334.65 513.283 1330.85 515.658C1327.05 517.874 1324.12 521.041 1322.06 525.157C1320 529.274 1318.98 534.182 1318.98 539.882V615.641H1287.86ZM1521.99 615.641V582.392H1553.34V615.641H1521.99Z" fill="#16191C"/>
</svg>
